<svg xmlns="http://www.w3.org/2000/svg" enable-background="new 0 0 28 28" viewBox="0 0 28 28" id="Bootstrap"><path fill="#bf87fd" d="M22.257,26.442L4.444,24.744c-1.147-0.109-1.988-1.128-1.879-2.275L4.347,3.781c0.109-1.147,1.128-1.988,2.275-1.879l17.813,1.698c1.147,0.109,1.988,1.128,1.879,2.275l-1.782,18.688C24.423,25.71,23.404,26.551,22.257,26.442z" class="colorff7c66 svgShape"></path><path d="M23.583,26H4.417C3.084,26,2,24.916,2,23.583V4.417C2,3.084,3.084,2,4.417,2h19.166C24.916,2,26,3.084,26,4.417v19.167C26,24.916,24.916,26,23.583,26z M4.417,3C3.636,3,3,3.635,3,4.417v19.167C3,24.365,3.636,25,4.417,25h19.166C24.364,25,25,24.365,25,23.583V4.417C25,3.635,24.364,3,23.583,3H4.417z" fill="#8e12ec" class="color000000 svgShape"></path><path d="M14.95,21.714H8.518c-0.276,0-0.5-0.224-0.5-0.5v-14c0-0.276,0.224-0.5,0.5-0.5h6.803c1.37,0,2.488,0.324,3.323,0.963c0.886,0.675,1.335,1.687,1.335,3.007c0,0.807-0.204,1.512-0.607,2.094c-0.205,0.297-0.456,0.56-0.75,0.787c0.5,0.255,0.908,0.61,1.22,1.062c0.496,0.717,0.747,1.615,0.747,2.671c0,0.543-0.095,1.072-0.281,1.575c0,0.059-0.01,0.117-0.032,0.17c-0.23,0.56-0.601,1.056-1.071,1.435c-0.482,0.39-1.079,0.696-1.773,0.909C16.73,21.604,15.896,21.714,14.95,21.714z M9.018,20.714h5.933c0.845,0,1.58-0.095,2.186-0.282c0.572-0.175,1.056-0.421,1.439-0.731c0.301-0.243,0.546-0.551,0.714-0.898c0.002-0.056,0.015-0.112,0.036-0.166c0.175-0.424,0.263-0.874,0.263-1.338c0-0.849-0.191-1.556-0.569-2.103c-0.356-0.516-0.908-0.855-1.642-1.01c-0.231-0.049-0.396-0.253-0.396-0.489c0-0.201,0.12-0.428,0.306-0.506c0.549-0.232,0.974-0.562,1.263-0.979c0.285-0.413,0.43-0.926,0.43-1.526c0-1.005-0.309-1.729-0.942-2.212c-0.656-0.503-1.57-0.758-2.716-0.758H9.018V20.714z" fill="#8e12ec" class="color000000 svgShape"></path><path d="M15.319 19.715h-4.334c-.276 0-.5-.224-.5-.5v-4.368c0-.276.224-.5.5-.5h4.321c.834 0 1.507.212 2.001.63.026.016.051.034.074.055.514.459.778 1.118.787 1.958 0 .851-.262 1.525-.778 2.009C16.89 19.474 16.192 19.715 15.319 19.715zM11.485 18.715h3.834c.608 0 1.075-.149 1.386-.443.312-.293.464-.71.464-1.276-.005-.521-.139-.907-.406-1.173-.022-.014-.044-.03-.062-.048-.314-.287-.771-.427-1.394-.427h-3.821V18.715zM14.969 13.578h-4c-.276 0-.5-.224-.5-.5V9.215c0-.276.224-.5.5-.5h4c.776 0 1.396.183 1.843.544.475.383.716 1.016.716 1.879 0 .779-.258 1.393-.767 1.825-.016.014-.032.026-.049.037C16.244 13.378 15.643 13.578 14.969 13.578zM11.469 12.578h3.5c.462 0 .846-.127 1.14-.377.013-.011.025-.021.038-.029.256-.236.381-.574.381-1.034 0-.546-.116-.917-.345-1.101-.264-.214-.673-.322-1.214-.322h-3.5V12.578z" fill="#8e12ec" class="color000000 svgShape"></path></svg>