<svg xmlns="http://www.w3.org/2000/svg" enable-background="new 0 0 28 28" viewBox="0 0 28 28" id="CssAlt"><path fill="#87ddfd" d="M5,2.25h20.375c0,0-0.649,19.353-2.375,20c-1.726,0.647-7.623,3.141-9.062,2.602s-6.344-1.911-6.876-4.602S5,2.25,5,2.25z" class="colordeff8f svgShape"></path><path d="M14,26c-0.06,0-0.119-0.011-0.176-0.032l-8-3c-0.178-0.067-0.303-0.229-0.321-0.418l-2-20C3.488,2.409,3.534,2.269,3.629,2.165C3.724,2.06,3.858,2,4,2h20c0.142,0,0.276,0.06,0.371,0.165c0.095,0.104,0.141,0.245,0.126,0.385l-2,20c-0.019,0.189-0.144,0.352-0.321,0.418l-8,3C14.119,25.989,14.06,26,14,26z M6.467,22.141L14,24.966l7.533-2.825L23.447,3H4.553L6.467,22.141z" fill="#05a1e8" class="color000000 svgShape"></path><path d="M14,21c-0.076,0-0.151-0.017-0.221-0.052L9.646,18.91c-0.151-0.074-0.254-0.219-0.275-0.385l-0.376-2.962c-0.018-0.143,0.026-0.286,0.121-0.394S9.348,15,9.491,15h2.488c0.241,0,0.447,0.172,0.491,0.409l0.237,1.271l1.347,0.761l1.728-0.781L16.136,14H9.242c-0.245,0-0.454-0.177-0.493-0.419l-0.329-2c-0.037-0.224,0.081-0.444,0.288-0.537L12.14,9.5H8.165c-0.227,0-0.425-0.152-0.483-0.372l-0.665-2.5c-0.04-0.15-0.008-0.31,0.087-0.433S7.345,6,7.5,6h13c0.149,0,0.292,0.067,0.387,0.183c0.095,0.116,0.133,0.268,0.104,0.415l-0.498,2.5c-0.031,0.158-0.138,0.292-0.284,0.358L16.79,11h2.656c0.145,0,0.282,0.062,0.377,0.172c0.095,0.109,0.139,0.254,0.118,0.397l-0.975,6.987c-0.023,0.17-0.133,0.316-0.29,0.387l-4.472,2.013C14.14,20.985,14.07,21,14,21z M10.329,18.132l3.681,1.815l4.005-1.803L18.872,12h-4.403c-0.235,0-0.439-0.165-0.489-0.395c-0.049-0.23,0.068-0.464,0.283-0.561l5.299-2.394L19.891,7H8.15L8.55,8.5h5.919c0.235,0,0.439,0.165,0.489,0.395c0.049,0.23-0.069,0.464-0.284,0.561l-5.205,2.342L9.667,13h7.04c0.145,0,0.281,0.062,0.376,0.17s0.139,0.253,0.12,0.396l-0.466,3.5c-0.023,0.171-0.133,0.318-0.29,0.39l-2.212,1c-0.145,0.066-0.312,0.059-0.452-0.02l-1.771-1c-0.129-0.073-0.219-0.199-0.245-0.344L11.564,16h-1.506L10.329,18.132z" fill="#05a1e8" class="color000000 svgShape"></path></svg>