<svg xmlns="http://www.w3.org/2000/svg" enable-background="new 0 0 256 256" viewBox="0 0 256 256" id="git"><path fill="#FF4A73" d="M241.02,142.65l-98.36,98.36c-8.1,8.1-21.22,8.1-29.32,0l-89.47-89.47l-8.89-8.89
				c-8.1-8.1-8.1-21.22,0-29.32l67.7-67.7l9.24-9.24l21.42-21.42c8.1-8.1,21.22-8.1,29.32,0l8.89,8.89l89.47,89.47
				C249.12,121.43,249.12,134.55,241.02,142.65z"></path><path fill="#F973A3" d="M151.55,23.86c-8.1-8.1-21.22-8.1-29.32,0l-98.36,98.36c-8.1,8.1-8.1,21.22,0,29.32l-8.89-8.89
				c-8.1-8.1-8.1-21.22,0-29.32l67.7-67.7l9.24-9.24l21.42-21.42c8.1-8.1,21.22-8.1,29.32,0L151.55,23.86z"></path><path fill="#EA2A6A" d="M241.022,142.649l-98.363,98.363c-8.1,8.1-21.219,8.1-29.319,0l-8.888-8.888c8.1,8.1,21.219,8.1,29.319,0
				l98.363-98.363c8.1-8.1,8.1-21.219,0-29.319l8.888,8.888C249.123,121.43,249.123,134.549,241.022,142.649z"></path><path fill="#FFE2E2" d="M191.603,121.24c-3.791-3.791-9.243-4.893-14.012-3.33l-0.011-0.01l-35.94-33.99l-0.001-0.001
				c0.066-0.548,0.111-1.103,0.111-1.669c0-7.594-6.156-13.75-13.75-13.75c-0.825,0-1.629,0.086-2.415,0.225l-0.005-0.005
				l-24.77-23.43l-8.89-8.89l-9.24,9.24l8.89,8.89l23.73,22.45l0,0c-0.674,1.623-1.05,3.402-1.05,5.27
				c0,5.228,2.919,9.774,7.215,12.1v55.098c-4.297,2.325-7.215,6.871-7.215,12.1c0,7.594,6.156,13.75,13.75,13.75
				s13.75-6.156,13.75-13.75c0-5.228-2.919-9.774-7.215-12.1V95.164l34.075,32.226l0.002,0.002
				c-1.231,4.591-0.057,9.691,3.545,13.293c5.37,5.37,14.076,5.37,19.445,0C196.972,135.316,196.972,126.61,191.603,121.24z"></path><g><path fill="#5F266D" d="M243.848,110.501l-98.36-98.36c-9.643-9.643-25.333-9.642-34.977,0l-98.36,98.361
			c-9.643,9.643-9.643,25.333,0,34.977l98.36,98.36c9.67,9.669,25.306,9.67,34.977,0l98.36-98.36
			C253.492,135.835,253.492,120.144,243.848,110.501z M91.92,42.047c7.802,7.803,1.743,1.979,30.974,29.628
			c0.917,0.833,2.167,1.196,3.389,0.979c6.45-1.14,12.167,4.201,11.385,10.784c-0.15,1.256,0.304,2.51,1.223,3.379l35.938,33.987
			c1.066,1.018,2.606,1.367,4.007,0.908c3.524-1.155,7.331-0.25,9.938,2.357c3.802,3.801,3.802,9.987,0,13.788
			c-3.801,3.802-9.987,3.802-13.788,0c-2.451-2.45-3.413-6.063-2.51-9.429c0.385-1.434-0.06-2.954-1.131-3.957l-34.062-32.213
			c-2.545-2.406-6.749-0.596-6.749,2.906v54.273c0,1.468,0.805,2.819,2.096,3.518c3.157,1.708,5.119,4.997,5.119,8.582
			c0,5.376-4.374,9.75-9.75,9.75s-9.75-4.374-9.75-9.75c0-3.584,1.961-6.873,5.119-8.582c1.292-0.699,2.096-2.05,2.096-3.518V94.34
			c0-1.468-0.805-2.819-2.096-3.518c-4.424-2.394-6.283-7.723-4.375-12.318c0.636-1.532,0.26-3.299-0.945-4.439
			C90.23,47.746,96.08,53.374,88.337,45.63C89.603,44.364,88.883,45.084,91.92,42.047z M238.191,139.821l-98.36,98.36
			c-6.543,6.543-17.119,6.544-23.663,0l-98.36-98.359c-6.523-6.524-6.523-17.14,0-23.663L82.68,51.287
			c7.858,7.858,2.3,2.505,28.046,26.862c-1.631,6.875,0.979,14.132,6.739,18.378v50.723c-4.502,3.319-7.215,8.598-7.215,14.287
			c0,9.788,7.962,17.75,17.75,17.75s17.75-7.962,17.75-17.75c0-5.689-2.713-10.968-7.215-14.287v-42.797l25.74,24.343
			c-0.656,5.376,1.178,10.841,5.054,14.718c6.937,6.937,18.165,6.938,25.103,0c6.92-6.921,6.92-18.182,0-25.103
			c-4.162-4.162-9.996-5.941-15.683-4.912L145.75,82.291c0-10.374-8.757-18.394-18.776-17.769
			C99.516,38.55,105.313,44.126,97.577,36.39l18.591-18.591c6.523-6.522,17.139-6.525,23.663,0l98.36,98.36
			C244.735,122.702,244.735,133.278,238.191,139.821z"></path><path fill="#5F266D" d="M35.234 128.209c-1.521-1.603-4.053-1.669-5.655-.147-1.602 1.521-1.668 4.053-.147 5.655l19.277 20.308c1.52 1.602 4.052 1.668 5.655.147 1.602-1.521 1.668-4.053.147-5.655L35.234 128.209zM64.838 159.396c-1.521-1.603-4.053-1.669-5.655-.147-1.602 1.521-1.668 4.052-.147 5.655l2.063 2.173c1.521 1.602 4.053 1.668 5.655.147 1.602-1.521 1.668-4.053.147-5.655L64.838 159.396z"></path></g></svg>