<svg xmlns="http://www.w3.org/2000/svg" enable-background="new 0 0 28 28" viewBox="0 0 28 28" id="Mongodb"><path fill="#87fd9d" d="M18.544,7.527c2.136,4.08,2.064,11.707-1.463,14.199s-6.285,0.073-7.017-6.441C9.333,8.772,13.513-2.082,18.544,7.527z" class="colorffa0c6 svgShape"></path><path d="M14.512,26.013c-0.055,0-0.109-0.009-0.163-0.027l-0.599-0.206c-0.205-0.07-0.342-0.267-0.337-0.483c0-0.016,0.027-1.457-0.288-2.345c-0.407-0.32-1.374-1.146-2.323-2.438c-0.33-0.45-0.632-0.923-0.896-1.404c-0.827-1.508-1.294-3.114-1.388-4.775c-0.021-0.382-0.025-0.766-0.006-1.159c0.178-3.863,1.726-7.372,4.245-9.625c0.405-0.363,0.616-0.708,0.684-1.117c0.037-0.23,0.23-0.405,0.465-0.418c0.248-0.036,0.445,0.138,0.51,0.363c0.113,0.402,0.321,0.84,0.57,1.2c0.085,0.162,0.301,0.394,0.492,0.597c0.938,1,2.889,3.082,3.825,7.338c0.931,5.606-1.662,9.068-3.29,10.636c-0.359,0.35-0.64,0.569-0.777,0.673c-0.099,0.13-0.16,0.255-0.188,0.38c-0.127,0.586-0.071,1.841-0.038,2.275c0.012,0.168-0.061,0.33-0.193,0.433C14.729,25.977,14.621,26.013,14.512,26.013z M13.923,3.76c-0.138,0.183-0.304,0.359-0.498,0.534c-2.321,2.075-3.747,5.329-3.914,8.928c-0.018,0.359-0.014,0.708,0.006,1.055c0.086,1.511,0.512,2.976,1.267,4.352c0.243,0.442,0.521,0.878,0.825,1.293c0.975,1.328,1.955,2.111,2.232,2.32c0.071,0.053,0.127,0.124,0.161,0.207c0.046,0.109,0.087,0.226,0.123,0.347c0.076-0.225,0.199-0.44,0.372-0.652c0.026-0.033,0.058-0.062,0.092-0.088c0.093-0.067,0.366-0.271,0.694-0.58c1.523-1.479,3.89-4.645,3.039-9.773c-0.873-3.962-2.63-5.836-3.573-6.844c-0.318-0.339-0.528-0.563-0.631-0.793C14.052,3.972,13.986,3.869,13.923,3.76z" fill="#1da61c" class="color000000 svgShape"></path></svg>