<svg xmlns="http://www.w3.org/2000/svg" enable-background="new 0 0 28 28" viewBox="0 0 28 28" id="NodeJs"><path fill="#87fd9d" d="M21.325,5.931c2.125,2.286,3.872,16.087-0.835,16.868c-4.582,0.76-15.647,2.627-15.748-3.858C4.641,12.456,3.209,6.325,9.174,5.152C13.354,4.33,19.156,3.598,21.325,5.931z" class="colorffe577 svgShape"></path><path d="M8.703,22.782c-0.383,0-0.767-0.098-1.118-0.294l-0.536-0.299c-0.241-0.134-0.328-0.438-0.193-0.68c0.134-0.243,0.439-0.327,0.68-0.193l0.536,0.299C8.476,21.84,8.958,21.837,9.36,21.6c0.4-0.235,0.64-0.653,0.64-1.118V9.5C10,9.224,10.224,9,10.5,9S11,9.224,11,9.5v10.981c0,0.823-0.424,1.563-1.134,1.98C9.504,22.676,9.104,22.782,8.703,22.782z" fill="#1da61c" class="color000000 svgShape"></path><path d="M14.002,25.999c-0.273,0-0.548-0.071-0.791-0.214l-2.465-1.438c-0.238-0.139-0.319-0.445-0.18-0.684c0.139-0.239,0.445-0.321,0.684-0.18l2.465,1.438c0.179,0.104,0.393,0.106,0.573,0l8.922-5.206c0.178-0.104,0.289-0.301,0.29-0.511V8.793c0-0.21-0.112-0.406-0.292-0.512l-8.919-5.204c-0.178-0.104-0.396-0.104-0.572,0L4.788,8.282C4.61,8.387,4.499,8.582,4.5,8.792v10.412c0,0.211,0.11,0.405,0.289,0.51l2.757,1.608c0.238,0.139,0.319,0.445,0.18,0.684s-0.446,0.32-0.684,0.18l-2.757-1.608C3.801,20.296,3.5,19.77,3.5,19.204V8.793C3.499,8.229,3.799,7.702,4.284,7.419l8.926-5.204c0.488-0.287,1.096-0.285,1.582-0.002l8.921,5.205C24.199,7.703,24.5,8.229,24.5,8.793v10.413c-0.001,0.562-0.302,1.088-0.784,1.372l-8.924,5.207C14.549,25.928,14.275,25.999,14.002,25.999z" fill="#1da61c" class="color000000 svgShape"></path><path d="M16.5,19c-2.176,0-4.5-0.723-4.5-2.75c0-0.276,0.224-0.5,0.5-0.5s0.5,0.224,0.5,0.5c0,1.701,3.142,1.75,3.5,1.75c1.915,0,3.5-0.132,3.5-1.75c0-0.822-0.831-1.101-2.872-1.585l-0.748-0.18c-0.23-0.058-0.477-0.111-0.729-0.167C14.024,13.961,12,13.516,12,11.75C12,9.723,14.324,9,16.5,9S21,9.723,21,11.75c0,0.276-0.224,0.5-0.5,0.5s-0.5-0.224-0.5-0.5c0-1.701-3.142-1.75-3.5-1.75S13,10.049,13,11.75c0,0.891,1.242,1.235,2.865,1.592c0.262,0.058,0.516,0.113,0.755,0.173l0.738,0.178C19.312,14.155,21,14.556,21,16.25C21,19,18.072,19,16.5,19z" fill="#1da61c" class="color000000 svgShape"></path></svg>